<svg xmlns="http://www.w3.org/2000/svg" xmlns:xlink="http://www.w3.org/1999/xlink" version="1.1" x="0px" y="0px" viewBox="0 0 48 48" enable-background="new 0 0 48 48" xml:space="preserve"><g><path d="M46,45h-1V4c0-0.6-0.4-1-1-1h-6.2c-0.4-1.1-1.4-1.9-2.6-2c-1.4-0.1-2.6,0.7-3.1,2H15.8c-0.4-1.3-1.7-2.1-3.1-2   c-1.2,0.1-2.2,0.9-2.6,2H4C3.4,3,3,3.5,3,4v41H2c-0.6,0-1,0.4-1,1c0,0.6,0.4,1,1,1h4c0.6,0,1-0.4,1-1c0-0.6-0.4-1-1-1H5V5h5.1   L11,15.3c0.1,0.9,0.5,1.6,1.2,2.1l6.8,5.1v5.2c0,0-2,10.1-2,10.3v6c0,1.7,1.3,3,3,3c1.7,0,3-1.3,3-3v-5.7l0.7-3.5   c0.2,0,0.4,0,0.6,0l0.7,3.5V44c0,1.7,1.3,3,3,3c1.7,0,3-1.3,3-3v-6c0-0.2-2-10.3-2-10.3v-5.2l6.8-5.1c0.7-0.5,1.1-1.3,1.2-2.1   L37.9,5H43v40h-1c-0.6,0-1,0.4-1,1c0,0.6,0.4,1,1,1h4c0.6,0,1-0.4,1-1C47,45.4,46.6,45,46,45z M31.9,5l-0.8,8.4l-5.1,3.8   c-1.3-0.6-2.8-0.6-4.1,0l-5.1-3.8L16.1,5H31.9z M35,15.1c0,0.3-0.2,0.5-0.4,0.7l-7.2,5.4C27.1,21.4,27,21.7,27,22v5.8   c0,0.1,2,10.1,2,10.2v6c0,0.6-0.4,1-1,1c-0.6,0-1-0.4-1-1v-5.8c0-0.1-0.9-4.7-0.9-4.7c-0.1-0.3-0.2-0.5-0.5-0.7   c-0.3-0.2-0.7-0.1-0.8-0.1c-0.7,0.2-0.9,0.2-1.6,0c-0.3-0.1-0.6,0-0.8,0.1c-0.2,0.1-0.4,0.4-0.5,0.7c0,0-0.9,4.7-0.9,4.7V44   c0,0.6-0.4,1-1,1c-0.6,0-1-0.4-1-1v-6c0-0.1,2-10.1,2-10.2V22c0-0.3-0.1-0.6-0.4-0.8l-7.2-5.4c-0.2-0.2-0.4-0.4-0.4-0.7L12,4   c0,0,0,0,0,0l0,0c0-0.5,0.4-1,0.9-1c0.6,0,1.1,0.4,1.1,0.9L14.9,14c0,0.3,0.2,0.5,0.4,0.7l5.9,4.4c0.3,0.3,0.8,0.3,1.1,0   c1-0.6,2.3-0.6,3.2,0c0.4,0.2,0.8,0.2,1.1,0l5.9-4.4c0.2-0.2,0.4-0.4,0.4-0.7L34,3.9c0-0.5,0.6-0.9,1.1-0.9C35.6,3,36,3.5,36,4   L35,15.1z"/><path d="M24,16c2.8,0,5-2.2,5-5c0-2.8-2.2-5-5-5c-2.8,0-5,2.2-5,5C19,13.8,21.2,16,24,16z M24,8c1.7,0,3,1.3,3,3c0,1.7-1.3,3-3,3   s-3-1.3-3-3C21,9.3,22.3,8,24,8z"/></g></svg>