<svg xmlns="http://www.w3.org/2000/svg" xmlns:xlink="http://www.w3.org/1999/xlink" version="1.1" x="0px" y="0px" viewBox="0 0 48 60" enable-background="new 0 0 48 48" xml:space="preserve"><g><path d="M28.7,17.3c0,0-3.5,3.6-8.8,4.8c-1.5,0.3-2.7,1.5-3,3l-13.2,4c-1,0.3-1.8,1.1-2,2.2l-0.5,2C0.7,34.9,1.9,37,4,37   c1.4,0,2.6-0.9,2.9-2.3L7,34.4c0,0,15.1-4.6,15.2-4.6c2.2-0.6,4.4-1.4,6.5-2.6V34c0,1.7,1.3,3,3,3c1.7,0,3-1.3,3-3V22.6   c1.4-1.6,1.2-4.1-0.3-5.5C32.7,15.6,30.1,15.7,28.7,17.3z M33,21.4c0,0-0.4,0.3-0.4,0.8V34c0,0.6-0.4,1-1,1s-1-0.4-1-1v-8.6   c0-0.4-0.2-0.7-0.5-0.9c-0.3-0.2-0.7-0.2-1,0c-2.4,1.5-4.9,2.6-7.5,3.3c-0.1,0-15.7,4.8-15.7,4.8C5.1,33,5,34.2,5,34.2   c-0.1,0.5-0.7,0.9-1.2,0.7c-0.5-0.1-0.9-0.7-0.7-1.2l0.5-2c0.1-0.3,0.3-0.6,0.7-0.7L18,26.9c0.4-0.1,0.7-0.5,0.7-0.9   c0-0.9,0.7-1.7,1.6-1.9c5.9-1.3,9.7-5.2,9.8-5.4c0.4-0.4,1.8-1.1,2.8-0.1c0,0,0,0,0,0C33.7,19.3,33.8,20.5,33,21.4z"/><path d="M42,11c-2.8,0-5,2.2-5,5c0,2.8,2.2,5,5,5c2.8,0,5-2.2,5-5C47,13.2,44.8,11,42,11z M42,19c-1.7,0-3-1.3-3-3s1.3-3,3-3   c1.7,0,3,1.3,3,3S43.6,19,42,19z"/></g></svg>