<svg xmlns="http://www.w3.org/2000/svg" xmlns:xlink="http://www.w3.org/1999/xlink" version="1.1" x="0px" y="0px" viewBox="0 0 48 48" enable-background="new 0 0 48 48" xml:space="preserve"><g><path d="M24,11.2c2.8,0,5.1-2.3,5.1-5.1C29.1,3.3,26.8,1,24,1c-2.8,0-5.1,2.3-5.1,5.1C18.9,8.9,21.2,11.2,24,11.2z M24,3   c1.7,0,3.1,1.4,3.1,3.1c0,1.7-1.4,3.1-3.1,3.1c-1.7,0-3.1-1.4-3.1-3.1C20.9,4.4,22.3,3,24,3z"/><path d="M40.4,13.3H7.6c-1.7,0-3.1,1.4-3.1,3.1s1.4,3.1,3.1,3.1h11.2v9l-5.2,5.2c-0.5,0.5-0.8,1.1-0.9,1.8l-1,8.2   c-0.1,0.8,0.3,3.1,2.7,3.4c1.7,0.2,3.2-1,3.4-2.7l0.9-7.1l3-3c1.4,0.7,3.2,0.7,4.6,0l3.1,3l0.8,7.1c0.2,1.6,1.5,2.7,3,2.7   c1.9,0,3.2-1.7,3.1-3.4l-0.9-8.2c-0.1-0.7-0.4-1.4-0.9-1.9l-5.4-5.2v-8.9h11.2c1.7,0,3.1-1.4,3.1-3.1S42,13.3,40.4,13.3z    M40.4,17.4H28.1c-0.6,0-1,0.5-1,1v10.4c0,0.3,0.1,0.5,0.3,0.7L33,35c0.2,0.2,0.3,0.4,0.3,0.6l0.9,8.2c0.1,0.6-0.3,1.1-0.9,1.1   c-0.6,0.1-1.1-0.3-1.1-0.9l-0.8-7.4c0-0.2-0.1-0.5-0.3-0.6l-3.9-3.8c-0.2-0.2-0.5-0.3-0.7-0.3c-0.2,0-0.4,0.1-0.6,0.2   c-1.1,0.8-2.6,0.8-3.7,0c-0.4-0.3-1-0.3-1.3,0.1L17,36c-0.2,0.2-0.3,0.4-0.3,0.6l-0.9,7.5c-0.1,0.6-0.5,0.9-1.1,0.9   c-0.9-0.1-0.9-0.9-0.9-1.1l1-8.2c0-0.2,0.1-0.4,0.3-0.6l5.5-5.5c0.2-0.2,0.3-0.5,0.3-0.7V18.4c0-0.6-0.5-1-1-1H7.6   c-0.6,0-1-0.5-1-1c0-0.6,0.5-1,1-1h32.7c0.6,0,1,0.5,1,1C41.4,16.9,40.9,17.4,40.4,17.4z"/></g></svg>